<?xml version="1.0" encoding="utf-8"?>
<!-- Generator: Adobe Illustrator 23.0.1, SVG Export Plug-In . SVG Version: 6.00 Build 0)  -->
<svg version="1.1" xmlns="http://www.w3.org/2000/svg" xmlns:xlink="http://www.w3.org/1999/xlink" x="0px" y="0px"
	 viewBox="0 0 24 24" enable-background="new 0 0 24 24" xml:space="preserve">
<g id="Pasteboard_background">
</g>
<g id="Page_background">
</g>
<g id="MouseOff">
</g>
<g id="MouseOver">
	<g>
		<path fill-rule="evenodd" clip-rule="evenodd" d="M15.98,13.14c0-1.51-0.65-2.84-1.64-3.67c0.98,0.33,1.97,0.85,2.93,1.55
			c1.32,0.96,2.13,1.91,2.16,1.95l0.19,0.22l-0.19,0.22c-0.03,0.04-0.84,0.99-2.16,1.95c-1.05,0.77-2.12,1.31-3.18,1.63
			C15.23,16.19,15.98,14.77,15.98,13.14L15.98,13.14z M6.73,15.37c-1.32-0.96-2.13-1.91-2.16-1.95L4.39,13.2l0.19-0.22
			c0.03-0.04,0.84-0.99,2.16-1.95c0.93-0.67,1.87-1.18,2.8-1.51c-0.96,0.83-1.58,2.14-1.58,3.62c0,1.6,0.73,3,1.82,3.81
			C8.77,16.63,7.74,16.1,6.73,15.37L6.73,15.37z M9.51,13.14c0-1.43,1.1-2.59,2.46-2.59c1.36,0,2.46,1.16,2.46,2.59
			s-1.1,2.59-2.46,2.59C10.61,15.74,9.51,14.58,9.51,13.14L9.51,13.14z M13.1,13.91v-0.52h-2.19v0.52H13.1L13.1,13.91z M13.1,12.92
			V12.4h-2.19v0.52H13.1L13.1,12.92z M19.58,11.94c-2.51-2.39-5.15-3.55-7.87-3.45c-4.26,0.16-7.25,3.4-7.28,3.44
			c-0.09,0.1-0.25,0.11-0.35,0.02c-0.1-0.09-0.11-0.25-0.02-0.35c0.13-0.14,3.16-3.43,7.63-3.6c2.86-0.1,5.62,1.1,8.23,3.58
			c0.1,0.09,0.1,0.25,0.01,0.35c-0.05,0.05-0.11,0.08-0.18,0.08C19.69,12.01,19.63,11.99,19.58,11.94L19.58,11.94z"/>
	</g>
</g>
</svg>
