<svg xmlns="http://www.w3.org/2000/svg" viewBox="0 0 16 9"><defs><style>.a{fill-rule:evenodd;}</style></defs><title>lpf-menu-icon</title><path class="a" d="M16,13.14a4.76,4.76,0,0,0-1.63-3.66A11.24,11.24,0,0,1,17.28,11a13,13,0,0,1,2.16,2l.19.22-.19.22a13,13,0,0,1-2.16,1.95A10.8,10.8,0,0,1,14.1,17,4.72,4.72,0,0,0,16,13.14ZM6.73,15.37a14.12,14.12,0,0,1-2.16-1.95l-.18-.22L4.57,13a14.12,14.12,0,0,1,2.16-2A11.37,11.37,0,0,1,9.54,9.52,4.8,4.8,0,0,0,8,13.14,4.72,4.72,0,0,0,9.78,17a11.17,11.17,0,0,1-3-1.59Zm2.78-2.23A2.53,2.53,0,0,1,12,10.55a2.53,2.53,0,0,1,2.46,2.59A2.53,2.53,0,0,1,12,15.74a2.53,2.53,0,0,1-2.46-2.6Zm3.59.77v-.52H10.91v.52Zm0-1V12.4H10.91v.52Zm6.48-1c-2.51-2.38-5.15-3.54-7.87-3.45a11.56,11.56,0,0,0-7.28,3.44.25.25,0,0,1-.37-.33A11.84,11.84,0,0,1,11.69,8c2.86-.1,5.62,1.1,8.23,3.59a.24.24,0,0,1-.17.42.23.23,0,0,1-.17-.07Z" transform="translate(-4 -8)"/></svg>