<?xml version="1.0" encoding="utf-8"?>
<!-- Generator: Adobe Illustrator 23.0.1, SVG Export Plug-In . SVG Version: 6.00 Build 0)  -->
<svg version="1.1" xmlns="http://www.w3.org/2000/svg" xmlns:xlink="http://www.w3.org/1999/xlink" x="0px" y="0px"
	 viewBox="0 0 24 24" enable-background="new 0 0 24 24" xml:space="preserve">
<g id="Pasteboard_background">
</g>
<g id="Page_background">
</g>
<g id="MouseOff">
</g>
<g id="MouseOver">
	<g>
		<path fill-rule="evenodd" clip-rule="evenodd" d="M7.96,13.14c0-1.48,0.62-2.79,1.58-3.62c-0.93,0.33-1.88,0.83-2.8,1.51
			c-1.32,0.96-2.13,1.91-2.16,1.95L4.39,13.2l0.19,0.22c0.03,0.04,0.84,0.99,2.16,1.95c1.01,0.73,2.03,1.27,3.04,1.59
			C8.68,16.15,7.96,14.74,7.96,13.14L7.96,13.14z"/>
		<path fill-rule="evenodd" clip-rule="evenodd" d="M19.44,12.98c-0.03-0.04-0.84-0.99-2.16-1.95c-0.97-0.71-1.96-1.23-2.93-1.55
			c0.99,0.83,1.64,2.16,1.64,3.67c0,1.63-0.75,3.05-1.88,3.86c1.06-0.32,2.13-0.87,3.18-1.63c1.32-0.96,2.13-1.91,2.16-1.95
			l0.19-0.22L19.44,12.98L19.44,12.98z"/>
		<path fill-rule="evenodd" clip-rule="evenodd" d="M9.51,13.14c0-1.43,1.1-2.59,2.46-2.59c1.36,0,2.46,1.16,2.46,2.59
			c0,1.43-1.1,2.59-2.46,2.59C10.61,15.74,9.51,14.58,9.51,13.14L9.51,13.14z M13.1,13.91v-0.52h-2.19v0.52H13.1L13.1,13.91z
			 M13.1,12.92V12.4h-2.19v0.52H13.1L13.1,12.92z"/>
		<path fill-rule="evenodd" clip-rule="evenodd" d="M19.75,12.01c-0.06,0-0.12-0.02-0.17-0.07c-2.51-2.39-5.15-3.55-7.87-3.45
			c-4.26,0.16-7.25,3.4-7.28,3.44c-0.09,0.1-0.25,0.11-0.35,0.02c-0.1-0.09-0.11-0.25-0.02-0.35c0.13-0.14,3.16-3.43,7.63-3.6
			c2.86-0.1,5.62,1.1,8.23,3.58c0.1,0.09,0.1,0.25,0.01,0.35C19.88,11.99,19.82,12.01,19.75,12.01L19.75,12.01z"/>
	</g>
</g>
</svg>
